<svg width="386" height="402" viewBox="0 0 386 402" fill="none" xmlns="http://www.w3.org/2000/svg">
<path d="M255.316 358.365H260.361V296.693H255.316V358.365Z" fill="white" stroke="black" stroke-width="0.666667" stroke-miterlimit="10" stroke-linecap="round" stroke-linejoin="round"/>
<path d="M257.839 356.555C262.164 356.555 265.671 360.062 265.671 364.387H250.007C250.007 360.062 253.514 356.555 257.839 356.555Z" fill="white"/>
<path d="M257.839 356.555C262.164 356.555 265.671 360.062 265.671 364.387H250.007C250.007 360.062 253.514 356.555 257.839 356.555Z" stroke="black" stroke-width="0.666667" stroke-miterlimit="10" stroke-linecap="round" stroke-linejoin="round"/>
<path d="M257.611 364.352H293.529V375.06H289.629V367.7H257.611V364.352Z" fill="white"/>
<path d="M257.611 364.352H293.529V375.06H289.629V367.7H257.611V364.352Z" stroke="black" stroke-width="0.666667" stroke-miterlimit="10" stroke-linecap="round" stroke-linejoin="round"/>
<path d="M287.105 375.393C287.105 377.841 289.089 379.825 291.537 379.825C293.985 379.825 295.969 377.841 295.969 375.393C295.969 372.945 293.985 370.961 291.537 370.961C289.089 370.961 287.105 372.945 287.105 375.393Z" fill="white"/>
<path d="M287.105 375.393C287.105 377.841 289.089 379.825 291.537 379.825C293.985 379.825 295.969 377.841 295.969 375.393C295.969 372.945 293.985 370.961 291.537 370.961C289.089 370.961 287.105 372.945 287.105 375.393Z" stroke="black" stroke-width="0.666667" stroke-miterlimit="10" stroke-linecap="round" stroke-linejoin="round"/>
<path d="M289.499 375.393C289.499 376.518 290.411 377.43 291.537 377.43C292.662 377.43 293.575 376.518 293.575 375.393C293.575 374.267 292.662 373.355 291.537 373.355C290.411 373.355 289.499 374.267 289.499 375.393Z" fill="#E1F3FA"/>
<path d="M257.611 364.352H221.693V375.06H225.594V367.7H257.611V364.352Z" fill="white"/>
<path d="M257.611 364.352H221.693V375.06H225.594V367.7H257.611V364.352Z" stroke="black" stroke-width="0.666667" stroke-miterlimit="10" stroke-linecap="round" stroke-linejoin="round"/>
<path d="M228.116 375.393C228.116 377.841 226.132 379.825 223.684 379.825C221.238 379.825 219.254 377.841 219.254 375.393C219.254 372.945 221.238 370.961 223.684 370.961C226.132 370.961 228.116 372.945 228.116 375.393Z" fill="white"/>
<path d="M228.116 375.393C228.116 377.841 226.132 379.825 223.684 379.825C221.238 379.825 219.254 377.841 219.254 375.393C219.254 372.945 221.238 370.961 223.684 370.961C226.132 370.961 228.116 372.945 228.116 375.393Z" stroke="black" stroke-width="0.666667" stroke-miterlimit="10" stroke-linecap="round" stroke-linejoin="round"/>
<path d="M225.722 375.393C225.722 376.518 224.81 377.43 223.684 377.43C222.559 377.43 221.646 376.518 221.646 375.393C221.646 374.267 222.559 373.355 223.684 373.355C224.81 373.355 225.722 374.267 225.722 375.393Z" fill="#E1F3FA"/>
<path d="M184.716 271.844C185.354 279.678 191.828 287.435 195.71 290.546C202.102 295.654 225.716 297.272 238.342 297.728C239.569 297.778 240.693 297.811 241.688 297.835C252.902 298.12 304.202 303.722 301.958 270.087C299.713 236.444 306.162 232.804 313.73 203.367C321.298 173.935 338.678 153.186 286.537 146.458C267.361 143.986 255.653 148.906 248.521 156.112C236.249 168.504 237.482 187.667 237.482 187.667C237.482 202.09 229.712 228.91 214.557 244.639C209.98 249.399 204.72 253.143 198.796 255.228C187.434 259.224 184.19 265.559 184.716 271.844Z" fill="white"/>
<path d="M184.716 271.844C185.354 279.678 191.828 287.435 195.71 290.546C202.102 295.654 225.716 297.272 238.342 297.728C239.569 297.778 240.693 297.811 241.688 297.835C252.902 298.12 304.202 303.722 301.958 270.087C299.713 236.444 306.162 232.804 313.73 203.367C321.298 173.935 338.678 153.186 286.537 146.458C267.361 143.986 255.653 148.906 248.521 156.112C236.249 168.504 237.482 187.667 237.482 187.667C237.482 202.09 229.712 228.91 214.557 244.639C209.98 249.399 204.72 253.143 198.796 255.228C187.434 259.224 184.19 265.559 184.716 271.844Z" stroke="#000C68" stroke-width="0.666667" stroke-miterlimit="10" stroke-linecap="round" stroke-linejoin="round"/>
<path d="M184.716 271.844C185.354 279.678 191.828 287.435 195.71 290.546C202.102 295.654 225.648 296.962 238.274 297.418C240.021 297.418 241.421 297.436 242.673 297.304C253.832 296.128 305.372 294.706 299.177 264.182C292.98 233.656 298.942 229.496 302.976 201.571C307.01 173.646 321.798 152.427 269.29 152.927C260.901 153.008 254.073 154.184 248.521 156.112C219.35 166.228 225.501 196.936 225.501 196.936C226.962 208.279 223.82 228.732 214.557 244.639C209.777 252.852 203.36 259.851 195.109 263.759C189.837 266.256 186.549 269.011 184.716 271.844Z" fill="#E1F3FA"/>
<path d="M181.615 334.475L202.205 387.817L226.087 383.924L206.055 327.455L181.615 334.475Z" fill="white"/>
<path d="M181.615 334.475L202.205 387.817L226.087 383.924L206.055 327.455L181.615 334.475Z" stroke="#000C68" stroke-width="0.666667" stroke-miterlimit="10" stroke-linecap="round" stroke-linejoin="round"/>
<path d="M225.567 381.08L202.079 382.749C202.079 382.749 174.994 387.204 177.042 401.18L226.744 397.648C226.744 397.648 230.97 394.819 228.994 390.743C227.018 386.668 225.567 381.08 225.567 381.08Z" fill="#E1F3FA"/>
<path d="M207.103 385.238L200.735 372.727C200.735 372.727 194.531 375.908 197.421 380.972C200.31 386.038 201.449 387.22 201.449 387.22L207.103 385.238Z" fill="#E1F3FA"/>
<path d="M188.073 384.377L193.127 390.237" stroke="white" stroke-width="0.666667" stroke-miterlimit="10" stroke-linecap="round" stroke-linejoin="round"/>
<path d="M190.489 383.284L195.542 389.144" stroke="white" stroke-width="0.666667" stroke-miterlimit="10" stroke-linecap="round" stroke-linejoin="round"/>
<path d="M192.689 381.626L197.743 387.484" stroke="white" stroke-width="0.666667" stroke-miterlimit="10" stroke-linecap="round" stroke-linejoin="round"/>
<path d="M220.74 238.549C220.74 238.549 177.289 250.744 172.244 263.357C167.199 275.972 186.541 360.632 186.541 360.632L217.377 351.38L202.799 273.169L262.509 238.549H220.74Z" fill="white"/>
<path d="M220.74 238.549C220.74 238.549 177.289 250.744 172.244 263.357C167.199 275.972 186.541 360.632 186.541 360.632L217.377 351.38L202.799 273.169L262.509 238.549H220.74Z" stroke="#000C68" stroke-width="0.666667" stroke-miterlimit="10" stroke-linecap="round" stroke-linejoin="round"/>
<path d="M171.404 326.382L141.367 375.248L158.427 392.406L190.091 341.19L171.404 326.382Z" fill="white"/>
<path d="M171.404 326.382L141.367 375.248L158.427 392.406L190.091 341.19L171.404 326.382Z" stroke="#000C68" stroke-width="0.666667" stroke-miterlimit="10" stroke-linecap="round" stroke-linejoin="round"/>
<path d="M160.437 390.329L145.414 372.195C145.414 372.195 126.033 352.758 115.857 362.555L147.647 400.925C147.647 400.925 152.407 402.715 154.573 398.738C156.737 394.759 160.437 390.329 160.437 390.329Z" fill="#E1F3FA"/>
<path d="M146.313 377.731L152.784 365.271C152.784 365.271 146.586 362.078 144.149 367.374C141.712 372.67 141.41 374.285 141.41 374.285L146.313 377.731Z" fill="#E1F3FA"/>
<path d="M135.942 361.752L134.117 369.272" stroke="white" stroke-width="0.666667" stroke-miterlimit="10" stroke-linecap="round" stroke-linejoin="round"/>
<path d="M138.235 363.08L136.411 370.6" stroke="white" stroke-width="0.666667" stroke-miterlimit="10" stroke-linecap="round" stroke-linejoin="round"/>
<path d="M140.865 363.904L139.04 371.424" stroke="white" stroke-width="0.666667" stroke-miterlimit="10" stroke-linecap="round" stroke-linejoin="round"/>
<path d="M294.747 238.549C294.747 238.549 307.361 286.484 272.46 289.008C237.56 291.53 227.888 289.008 227.888 289.008L187.521 354.184L161.872 333.578C161.872 333.578 191.727 273.449 194.669 261.676C197.613 249.902 217.496 241.912 229.42 238.549H294.747Z" fill="white"/>
<path d="M294.747 238.549C294.747 238.549 307.361 286.484 272.46 289.008C237.56 291.53 227.888 289.008 227.888 289.008L187.521 354.184L161.872 333.578C161.872 333.578 191.727 273.449 194.669 261.676C197.613 249.902 217.496 241.912 229.42 238.549H294.747Z" stroke="#000C68" stroke-width="0.666667" stroke-miterlimit="10" stroke-linecap="round" stroke-linejoin="round"/>
<path d="M33.5569 243.173H382.564V238.548H33.5569V243.173Z" fill="#000C68"/>
<path d="M232.9 159.496C232.9 159.496 250.087 170.639 282.136 159.747C282.136 159.747 278.398 151.713 278.484 126.063C278.574 99.9268 267.859 94.7975 255.868 93.6028C243.876 92.4095 232.9 96.3281 230.268 121.037C228.199 140.48 232.9 159.496 232.9 159.496Z" fill="#000C68"/>
<path d="M256.482 152.348C256.482 152.348 295.168 151.928 298.53 176.737C301.896 201.545 300.213 230.98 294.746 238.549H220.74L217.377 171.69C217.377 171.69 217.797 152.348 256.482 152.348Z" fill="#013DFE"/>
<path d="M256.482 152.348C256.482 152.348 295.168 151.928 298.53 176.737C301.896 201.545 300.213 230.98 294.746 238.549H220.74L217.377 171.69C217.377 171.69 217.797 152.348 256.482 152.348Z" stroke="black" stroke-width="0.666667" stroke-miterlimit="10"/>
<path d="M221.564 162.932C221.564 162.932 210.647 171.872 204.426 201.888C198.206 231.904 198.152 235.502 198.152 235.502L220.595 235.63L236.858 182.308" fill="#013DFE"/>
<path d="M221.564 162.932C221.564 162.932 210.647 171.872 204.426 201.888C198.206 231.904 198.152 235.502 198.152 235.502L220.595 235.63L236.858 182.308" stroke="black" stroke-width="0.666667" stroke-miterlimit="10"/>
<path d="M224.366 225.587C224.366 225.587 223.793 230.495 223.318 231.667C223.318 231.667 229.928 231.264 229.273 234.151C228.617 237.037 212.749 234.124 210.437 233.22C208.672 232.529 208.634 223.272 209.234 219.955L199.602 231.741C199.602 231.741 195.568 232.752 196.934 229.208C198.301 225.664 206.533 213.183 206.533 213.183C206.533 213.183 210.288 208.225 218.912 210.503C227.536 212.781 233.52 213.523 233.52 213.523C233.52 213.523 245.385 226.72 224.366 225.587Z" fill="white"/>
<path d="M224.366 225.587C224.366 225.587 223.793 230.495 223.318 231.667C223.318 231.667 229.928 231.264 229.273 234.151C228.617 237.037 212.749 234.124 210.437 233.22C208.672 232.529 208.634 223.272 209.234 219.955L199.602 231.741C199.602 231.741 195.568 232.752 196.934 229.208C198.301 225.664 206.533 213.183 206.533 213.183C206.533 213.183 210.288 208.225 218.912 210.503C227.536 212.781 233.52 213.523 233.52 213.523C233.52 213.523 245.385 226.72 224.366 225.587Z" stroke="#000C68" stroke-width="0.666667" stroke-miterlimit="10" stroke-linecap="round" stroke-linejoin="round"/>
<path d="M218.812 223.261C218.812 223.261 216.138 233.462 219.964 234.545" stroke="#000C68" stroke-width="0.666667" stroke-miterlimit="10" stroke-linecap="round" stroke-linejoin="round"/>
<path d="M213.732 220.834C213.732 220.834 211.116 232.875 214.94 233.958" stroke="#000C68" stroke-width="0.666667" stroke-miterlimit="10" stroke-linecap="round" stroke-linejoin="round"/>
<path d="M294.738 238.424L226.087 230.138L229.52 210.796L276.74 215.63C276.74 215.63 273.096 196.92 276.25 184.936" fill="#013DFE"/>
<path d="M294.738 238.424L226.087 230.138L229.52 210.796L276.74 215.63C276.74 215.63 273.096 196.92 276.25 184.936" stroke="black" stroke-width="0.666667" stroke-miterlimit="10"/>
<path d="M242.028 146.194V152.767V153.195C242.028 160.055 247.588 165.615 254.447 165.615C261.307 165.615 266.867 160.055 266.867 153.195V152.909V134.483C266.867 134.483 274.083 133.758 274.083 127.969C274.083 120.974 270.38 121.823 270.38 121.823V111.837H236.928V137.055C236.928 142.983 241.733 147.79 247.664 147.79H252.792" fill="white"/>
<path d="M242.028 146.194V152.767V153.195C242.028 160.055 247.588 165.615 254.447 165.615C261.307 165.615 266.867 160.055 266.867 153.195V152.909V134.483C266.867 134.483 274.083 133.758 274.083 127.969C274.083 120.974 270.38 121.823 270.38 121.823V111.837H236.928V137.055C236.928 142.983 241.733 147.79 247.664 147.79H252.792" stroke="#000C68" stroke-width="0.666667" stroke-miterlimit="10" stroke-linecap="round" stroke-linejoin="round"/>
<path d="M246.848 128.609C247.03 130.203 246.704 131.851 245.932 133.258C245.411 134.207 244.666 135.146 244.755 136.223C244.856 137.466 246.291 138.403 247.47 137.998" fill="white"/>
<path d="M246.848 128.609C247.03 130.203 246.704 131.851 245.932 133.258C245.411 134.207 244.666 135.146 244.755 136.223C244.856 137.466 246.291 138.403 247.47 137.998" stroke="#000C68" stroke-width="0.666667" stroke-miterlimit="10" stroke-linecap="round" stroke-linejoin="round"/>
<path d="M252.096 128.026C252.096 129.507 252.825 130.707 253.724 130.707C254.622 130.707 255.35 129.507 255.35 128.026C255.35 126.546 254.622 125.345 253.724 125.345C252.825 125.345 252.096 126.546 252.096 128.026Z" fill="#000C68"/>
<path d="M240.461 128.026C240.461 129.507 241.191 130.707 242.089 130.707C242.989 130.707 243.716 129.507 243.716 128.026C243.716 126.546 242.989 125.345 242.089 125.345C241.191 125.345 240.461 126.546 240.461 128.026Z" fill="#000C68"/>
<path d="M251.585 140.371C249.98 141.786 247.587 142.237 245.576 141.503L251.585 140.371Z" fill="white"/>
<path d="M251.585 140.371C249.98 141.786 247.587 142.237 245.576 141.503" stroke="#000C68" stroke-width="0.666667" stroke-miterlimit="10" stroke-linecap="round" stroke-linejoin="round"/>
<path d="M270.887 126.063C270.797 126.707 270.886 127.361 270.881 128.012C270.877 128.663 270.757 129.353 270.325 129.84C269.899 130.317 269.247 130.515 268.626 130.673" stroke="#000C68" stroke-width="0.666667" stroke-miterlimit="10" stroke-linecap="round" stroke-linejoin="round"/>
<path d="M242.831 109.101C242.831 109.101 244.513 119.193 264.469 120.157C264.469 120.157 263.859 129.57 266.378 129.162C269.845 128.602 270.887 120.296 270.887 120.296C270.887 120.296 273.923 112.448 269.757 106.701C265.59 100.954 244.753 96.8942 242.831 109.101Z" fill="#000C68"/>
<path d="M245.196 109.994C245.196 109.994 244.251 116.669 233.108 119.403C233.108 119.403 230.321 102.635 245.196 109.994Z" fill="#000C68"/>
<path d="M245.072 121.342C245.328 121.379 245.598 121.438 245.788 121.613C245.98 121.787 246.055 122.114 245.882 122.306C245.763 122.441 245.568 122.471 245.391 122.495C243.331 122.769 241.27 123.041 239.211 123.314C238.88 123.358 238.474 123.369 238.295 123.087C238.158 122.87 238.24 122.57 238.416 122.385C238.592 122.201 238.84 122.103 239.083 122.021C239.886 121.743 240.716 121.542 241.559 121.421C242.248 121.321 242.931 121.319 243.622 121.279C244.106 121.251 244.594 121.271 245.072 121.342Z" fill="#000C68"/>
<path d="M250.994 121.342C250.738 121.379 250.469 121.438 250.278 121.613C250.086 121.787 250.011 122.114 250.185 122.306C250.303 122.441 250.497 122.471 250.675 122.495C252.735 122.769 254.795 123.041 256.855 123.314C257.186 123.358 257.591 123.369 257.77 123.087C257.907 122.87 257.826 122.57 257.649 122.385C257.473 122.201 257.225 122.103 256.983 122.021C256.179 121.743 255.349 121.542 254.507 121.421C253.818 121.321 253.134 121.319 252.443 121.279C251.961 121.251 251.473 121.271 250.994 121.342Z" fill="#000C68"/>
<path d="M213.092 238.587L182.937 178.425C182.678 177.913 182.152 177.588 181.576 177.588H119.768C118.646 177.588 117.91 178.753 118.397 179.757L146.874 238.587H213.092Z" fill="white"/>
<path d="M213.092 238.587L182.937 178.425C182.678 177.913 182.152 177.588 181.576 177.588H119.768C118.646 177.588 117.91 178.753 118.397 179.757L146.874 238.587H213.092Z" stroke="#000C68" stroke-width="0.666667" stroke-miterlimit="10" stroke-linecap="round" stroke-linejoin="round"/>
<path d="M210.558 238.587L181.394 180.092C181.145 179.593 180.637 179.279 180.078 179.279H120.304C119.219 179.279 118.509 180.411 118.978 181.388L146.519 238.587H210.558Z" fill="white"/>
<path d="M210.558 238.587L181.394 180.092C181.145 179.593 180.637 179.279 180.078 179.279H120.304C119.219 179.279 118.509 180.411 118.978 181.388L146.519 238.587H210.558Z" stroke="#000C68" stroke-width="0.666667" stroke-miterlimit="10" stroke-linecap="round" stroke-linejoin="round"/>
<path d="M211.568 235.545H248.422V238.586H213.092L211.568 235.545Z" fill="white"/>
<path d="M211.568 235.545H248.422V238.586H213.092L211.568 235.545Z" stroke="#000C68" stroke-width="0.666667" stroke-miterlimit="10" stroke-linecap="round" stroke-linejoin="round"/>
<path d="M208.06 235.502L146.212 235.545L144.531 232.346L205.816 231.821L208.06 235.502Z" fill="#E1F3FA"/>
<path d="M160.895 204.565C160.895 202.658 159.794 201.013 158.196 200.218C160.798 199.33 163.923 201.578 165.18 205.239C166.438 208.906 165.347 212.601 162.743 213.494C160.371 214.309 157.568 212.513 156.136 209.418C158.772 209.365 160.895 207.214 160.895 204.565Z" fill="#E1F3FA"/>
<path d="M109.342 238.549H122.372L123.638 215.793H108.076L109.342 238.549Z" fill="white"/>
<path d="M109.342 238.549H122.372L123.638 215.793H108.076L109.342 238.549Z" stroke="#000C68" stroke-width="0.666667" stroke-miterlimit="10" stroke-linecap="round" stroke-linejoin="round"/>
<path d="M106.397 215.792H125.318V212.897H106.397V215.792Z" fill="white" stroke="#000C68" stroke-width="0.666667" stroke-miterlimit="10" stroke-linecap="round" stroke-linejoin="round"/>
<path d="M107.744 212.897H123.969V210.928H107.744V212.897Z" fill="white" stroke="#000C68" stroke-width="0.666667" stroke-miterlimit="10" stroke-linecap="round" stroke-linejoin="round"/>
<path d="M112.389 224.706C112.389 226.622 113.942 228.177 115.858 228.177C117.773 228.177 119.326 226.622 119.326 224.706C119.326 222.79 117.773 221.237 115.858 221.237C113.942 221.237 112.389 222.79 112.389 224.706Z" fill="#E1F3FA"/>
<path d="M214.551 9.1296L169.699 1.00026L205.861 13.8949L214.551 9.1296Z" fill="white"/>
<path d="M214.551 9.1296L169.699 1.00026L205.861 13.8949L214.551 9.1296Z" stroke="#000C68" stroke-width="0.666667" stroke-miterlimit="10" stroke-linecap="round" stroke-linejoin="round"/>
<path d="M169.7 0.999992L200.605 18.1693L189.884 28.2613L169.7 0.999992Z" fill="white"/>
<path d="M169.7 0.999991L200.605 18.1693L189.884 28.2613L169.7 0.999991Z" stroke="#000C68" stroke-width="0.666667" stroke-miterlimit="10" stroke-linecap="round" stroke-linejoin="round"/>
<path d="M205.861 13.8951L202.919 28.2618L200.605 18.1698L169.7 1.00048L205.861 13.8951Z" fill="white"/>
<path d="M205.861 13.8951L202.919 28.2618L200.605 18.1698L169.7 1.00048L205.861 13.8951Z" stroke="#000C68" stroke-width="0.666667" stroke-miterlimit="10" stroke-linecap="round" stroke-linejoin="round"/>
<path d="M202.919 28.2617L195.809 22.683L200.605 18.1697L202.919 28.2617Z" fill="white"/>
<path d="M202.919 28.2617L195.809 22.683L200.605 18.1697L202.919 28.2617Z" stroke="#000C68" stroke-width="0.666667" stroke-miterlimit="10" stroke-linecap="round" stroke-linejoin="round"/>
<path d="M205.744 30.7565C206.267 31.4765 206.777 32.2045 207.276 32.9405" stroke="#000C68" stroke-width="0.666667" stroke-linecap="round" stroke-linejoin="round"/>
<path d="M210.139 37.4545C223.272 59.6799 226.389 87.6852 218.973 112.34C217.227 118.149 214.824 123.933 210.635 128.321C203.36 135.944 191.953 138.059 181.428 137.593C161.657 136.721 143.343 128.455 124.563 123.097C110.473 119.079 92.0465 115.675 79.9879 125.82" stroke="#000C68" stroke-width="0.666667" stroke-linecap="round" stroke-linejoin="round" stroke-dasharray="5.35 5.35"/>
<path d="M78.0292 127.648C77.4226 128.276 76.8346 128.946 76.2706 129.656" stroke="#000C68" stroke-width="0.666667" stroke-linecap="round" stroke-linejoin="round"/>
<path d="M118.631 23.476C118.631 24.8587 119.752 25.9787 121.135 25.9787C122.516 25.9787 123.637 24.8587 123.637 23.476C123.637 22.0933 122.516 20.972 121.135 20.972C119.752 20.972 118.631 22.0933 118.631 23.476Z" fill="#E1F3FA"/>
<path d="M110.247 23.476C110.247 24.8587 111.368 25.9787 112.751 25.9787C114.133 25.9787 115.255 24.8587 115.255 23.476C115.255 22.0933 114.133 20.972 112.751 20.972C111.368 20.972 110.247 22.0933 110.247 23.476Z" fill="#E1F3FA"/>
<path d="M101.864 23.476C101.864 24.8587 102.984 25.9787 104.367 25.9787C105.749 25.9787 106.871 24.8587 106.871 23.476C106.871 22.0933 105.749 20.972 104.367 20.972C102.984 20.972 101.864 22.0933 101.864 23.476Z" fill="#E1F3FA"/>
<path d="M93.4797 23.476C93.4797 24.8587 94.6011 25.9787 95.9837 25.9787C97.3664 25.9787 98.4864 24.8587 98.4864 23.476C98.4864 22.0933 97.3664 20.972 95.9837 20.972C94.6011 20.972 93.4797 22.0933 93.4797 23.476Z" fill="#E1F3FA"/>
<path d="M85.0956 23.476C85.0956 24.8587 86.217 25.9787 87.5996 25.9787C88.9823 25.9787 90.1036 24.8587 90.1036 23.476C90.1036 22.0933 88.9823 20.972 87.5996 20.972C86.217 20.972 85.0956 22.0933 85.0956 23.476Z" fill="#E1F3FA"/>
<path d="M110.247 31.6966C110.247 33.0793 111.368 34.1993 112.751 34.1993C114.133 34.1993 115.255 33.0793 115.255 31.6966C115.255 30.314 114.133 29.1926 112.751 29.1926C111.368 29.1926 110.247 30.314 110.247 31.6966Z" fill="#E1F3FA"/>
<path d="M101.864 31.6966C101.864 33.0793 102.984 34.1993 104.367 34.1993C105.749 34.1993 106.871 33.0793 106.871 31.6966C106.871 30.314 105.749 29.1926 104.367 29.1926C102.984 29.1926 101.864 30.314 101.864 31.6966Z" fill="#E1F3FA"/>
<path d="M93.4797 31.6966C93.4797 33.0793 94.6011 34.1993 95.9837 34.1993C97.3664 34.1993 98.4864 33.0793 98.4864 31.6966C98.4864 30.314 97.3664 29.1926 95.9837 29.1926C94.6011 29.1926 93.4797 30.314 93.4797 31.6966Z" fill="#E1F3FA"/>
<path d="M85.0956 31.6966C85.0956 33.0793 86.217 34.1993 87.5996 34.1993C88.9823 34.1993 90.1036 33.0793 90.1036 31.6966C90.1036 30.314 88.9823 29.1926 87.5996 29.1926C86.217 29.1926 85.0956 30.314 85.0956 31.6966Z" fill="#E1F3FA"/>
<path d="M76.7128 31.6966C76.7128 33.0793 77.8328 34.1993 79.2155 34.1993C80.5982 34.1993 81.7195 33.0793 81.7195 31.6966C81.7195 30.314 80.5982 29.1926 79.2155 29.1926C77.8328 29.1926 76.7128 30.314 76.7128 31.6966Z" fill="#E1F3FA"/>
<path d="M136.516 15.6667C136.516 17.0493 137.638 18.1693 139.019 18.1693C140.402 18.1693 141.523 17.0493 141.523 15.6667C141.523 14.284 140.402 13.1627 139.019 13.1627C137.638 13.1627 136.516 14.284 136.516 15.6667Z" fill="#E1F3FA"/>
<path d="M128.132 15.6667C128.132 17.0493 129.253 18.1693 130.636 18.1693C132.019 18.1693 133.139 17.0493 133.139 15.6667C133.139 14.284 132.019 13.1627 130.636 13.1627C129.253 13.1627 128.132 14.284 128.132 15.6667Z" fill="#E1F3FA"/>
<path d="M119.748 15.6667C119.748 17.0493 120.869 18.1693 122.252 18.1693C123.635 18.1693 124.756 17.0493 124.756 15.6667C124.756 14.284 123.635 13.1627 122.252 13.1627C120.869 13.1627 119.748 14.284 119.748 15.6667Z" fill="#E1F3FA"/>
<path d="M111.365 15.6667C111.365 17.0493 112.487 18.1693 113.868 18.1693C115.251 18.1693 116.372 17.0493 116.372 15.6667C116.372 14.284 115.251 13.1627 113.868 13.1627C112.487 13.1627 111.365 14.284 111.365 15.6667Z" fill="#E1F3FA"/>
<path d="M102.981 15.6667C102.981 17.0493 104.102 18.1693 105.485 18.1693C106.868 18.1693 107.989 17.0493 107.989 15.6667C107.989 14.284 106.868 13.1627 105.485 13.1627C104.102 13.1627 102.981 14.284 102.981 15.6667Z" fill="#E1F3FA"/>
<path d="M151.939 163.723L135.309 158.65L140.066 155.261L133.414 148.501L137.021 144.954L143.671 151.714L147.155 147.142L151.939 163.723Z" fill="#E1F3FA"/>
<path d="M152.325 161.329L135.694 156.256L140.452 152.868L133.799 146.107L137.406 142.56L144.057 149.32L147.542 144.748L152.325 161.329Z" stroke="#000C68" stroke-width="0.666667" stroke-miterlimit="10" stroke-linecap="round" stroke-linejoin="round"/>
<path d="M385.456 201.518L385.5 201.794C386.332 206.972 381.246 211.108 376.346 209.239L376.084 209.14C371.184 207.27 370.146 200.796 374.214 197.488L374.43 197.312C378.499 194.002 384.626 196.339 385.456 201.518Z" stroke="#000C68" stroke-width="0.666667" stroke-miterlimit="10" stroke-linecap="round" stroke-linejoin="round"/>
<path d="M54.0631 31.694L54.4284 31.934C57.3577 33.85 57.1137 38.2166 53.9897 39.7953L53.5991 39.9926C50.4777 41.5713 46.8151 39.1753 47.0111 35.682L47.0351 35.2446C47.2297 31.75 51.1351 29.778 54.0631 31.694Z" stroke="#000C68" stroke-width="0.666667" stroke-miterlimit="10" stroke-linecap="round" stroke-linejoin="round"/>
<path d="M260.775 70.0306L270.73 64.284L264.982 54.3306L255.029 60.0773L260.775 70.0306Z" stroke="#000C68" stroke-width="0.666667" stroke-miterlimit="10" stroke-linecap="round" stroke-linejoin="round"/>
<path d="M92.1998 177.668C92.1998 180.433 94.4424 182.675 97.2064 182.675C99.9718 182.675 102.214 180.433 102.214 177.668C102.214 174.903 99.9718 172.661 97.2064 172.661C94.4424 172.661 92.1998 174.903 92.1998 177.668Z" stroke="#000C68" stroke-width="0.666667" stroke-miterlimit="10" stroke-linecap="round" stroke-linejoin="round"/>
<path d="M347.949 143.559C347.774 142.955 347.537 142.37 347.225 141.815L348.711 139.991C349.122 139.489 349.085 138.757 348.626 138.299L347.558 137.231C347.099 136.773 346.367 136.735 345.866 137.146L344.041 138.63C343.49 138.327 342.909 138.081 342.295 137.91L342.057 135.569C341.991 134.923 341.449 134.431 340.799 134.431H339.29C338.642 134.431 338.098 134.923 338.033 135.569L337.791 137.909C337.189 138.083 336.602 138.319 336.047 138.633L334.225 137.146C333.721 136.735 332.99 136.773 332.531 137.231L331.465 138.299C331.006 138.757 330.969 139.489 331.378 139.991L332.863 141.817C332.559 142.366 332.311 142.949 332.142 143.562L329.801 143.801C329.155 143.865 328.665 144.409 328.665 145.058V146.567C328.665 147.215 329.155 147.759 329.801 147.825L332.142 148.065C332.314 148.67 332.551 149.254 332.865 149.809L331.378 151.633C330.969 152.135 331.006 152.867 331.465 153.326L332.531 154.393C332.99 154.851 333.721 154.889 334.225 154.478L336.049 152.995C336.599 153.298 337.181 153.545 337.794 153.715L338.033 156.057C338.098 156.702 338.642 157.193 339.29 157.193H340.799C341.449 157.193 341.991 156.702 342.057 156.057L342.298 153.717C342.902 153.542 343.487 153.306 344.041 152.993L345.866 154.478C346.367 154.889 347.099 154.851 347.558 154.393L348.626 153.326C349.085 152.867 349.122 152.135 348.711 151.633L347.227 149.809C347.531 149.258 347.777 148.677 347.947 148.063L350.289 147.825C350.934 147.759 351.425 147.215 351.425 146.567V145.058C351.425 144.409 350.934 143.865 350.289 143.801L347.949 143.559Z" stroke="#000C68" stroke-width="0.666667" stroke-miterlimit="10" stroke-linecap="round" stroke-linejoin="round"/>
<path d="M336.251 145.813C336.251 143.718 337.949 142.019 340.045 142.019C342.14 142.019 343.837 143.718 343.837 145.813C343.837 147.907 342.14 149.606 340.045 149.606C337.949 149.606 336.251 147.907 336.251 145.813Z" stroke="#000C68" stroke-width="0.666667" stroke-miterlimit="10" stroke-linecap="round" stroke-linejoin="round"/>
<path d="M114.857 107.352L183.191 118.422C189.095 119.378 194.707 115.33 195.663 109.428L202.083 69.8049C203.039 63.9022 198.992 58.2889 193.088 57.3329L124.755 46.2622C118.851 45.3062 113.237 49.3529 112.281 55.2569L105.863 94.8796C104.905 100.782 108.953 106.396 114.857 107.352Z" fill="#E1F3FA"/>
<path d="M107.313 104.348L186.934 117.246C189.733 117.701 192.396 115.781 192.848 112.982L201.096 62.0717C201.55 59.2717 199.63 56.6104 196.832 56.1571L117.21 43.2584C114.41 42.8051 111.749 44.7237 111.294 47.5237L103.048 98.4331C102.594 101.233 104.513 103.894 107.313 104.348Z" stroke="#000C68" stroke-width="0.666667" stroke-miterlimit="10" stroke-linecap="round" stroke-linejoin="round"/>
<path d="M200.282 67.0957L110.481 52.5477" stroke="#000C68" stroke-width="0.666667" stroke-miterlimit="10" stroke-linecap="round" stroke-linejoin="round"/>
<path d="M193.766 61.2637C193.599 62.2917 194.297 63.2583 195.325 63.425C196.351 63.5917 197.319 62.893 197.486 61.8663C197.653 60.8397 196.955 59.8717 195.927 59.705C194.901 59.5383 193.933 60.2357 193.766 61.2637Z" fill="white"/>
<path d="M193.766 61.2637C193.599 62.2917 194.297 63.2583 195.325 63.425C196.351 63.5917 197.319 62.893 197.486 61.8663C197.653 60.8397 196.955 59.8717 195.927 59.705C194.901 59.5383 193.933 60.2357 193.766 61.2637Z" stroke="#000C68" stroke-width="0.666667" stroke-miterlimit="10" stroke-linecap="round" stroke-linejoin="round"/>
<path d="M188.381 60.3913C188.214 61.4193 188.911 62.386 189.939 62.5526C190.966 62.7193 191.934 62.0206 192.101 60.994C192.267 59.9673 191.57 58.9993 190.542 58.8326C189.515 58.666 188.547 59.3633 188.381 60.3913Z" fill="white"/>
<path d="M188.381 60.3913C188.214 61.4193 188.911 62.386 189.939 62.5526C190.966 62.7193 191.934 62.0206 192.101 60.994C192.267 59.9673 191.57 58.9993 190.542 58.8326C189.515 58.666 188.547 59.3633 188.381 60.3913Z" stroke="#000C68" stroke-width="0.666667" stroke-miterlimit="10" stroke-linecap="round" stroke-linejoin="round"/>
<path d="M182.995 59.5189C182.829 60.5469 183.526 61.5136 184.554 61.6802C185.581 61.8469 186.549 61.1482 186.715 60.1216C186.882 59.0949 186.185 58.1269 185.157 57.9602C184.13 57.7936 183.162 58.4909 182.995 59.5189Z" fill="white"/>
<path d="M182.995 59.5189C182.829 60.5469 183.526 61.5136 184.554 61.6802C185.581 61.8469 186.549 61.1482 186.715 60.1216C186.882 59.0949 186.185 58.1269 185.157 57.9602C184.13 57.7936 183.162 58.4909 182.995 59.5189Z" stroke="#000C68" stroke-width="0.666667" stroke-miterlimit="10" stroke-linecap="round" stroke-linejoin="round"/>
<path d="M163.361 82.1244C163.051 81.915 162.846 81.683 162.75 81.4297C162.651 81.175 162.625 80.9124 162.669 80.643L163.278 76.8897L177.461 87.4857L177.118 89.595L160.313 95.1884L160.921 91.4364C160.966 91.1524 161.074 90.9057 161.249 90.695C161.421 90.4857 161.687 90.3297 162.047 90.2297L168.909 87.9457C169.591 87.739 170.334 87.6084 171.137 87.5537C170.767 87.387 170.414 87.2164 170.077 87.043C169.742 86.871 169.431 86.6804 169.147 86.4764L163.361 82.1244Z" stroke="#00046A" stroke-width="0.666667" stroke-miterlimit="10" stroke-linecap="round" stroke-linejoin="round"/>
<path d="M146.924 67.4114L149.206 67.7807C149.826 67.8821 150.348 68.1327 150.774 68.5314C151.198 68.9314 151.474 69.4381 151.598 70.0541L158.08 100.743L155.818 100.377C155.263 100.287 154.744 100.034 154.264 99.6194C153.782 99.2021 153.47 98.6527 153.33 97.9687L146.924 67.4114Z" stroke="#00046A" stroke-width="0.666667" stroke-miterlimit="10" stroke-linecap="round" stroke-linejoin="round"/>
<path d="M144.552 73.8561L143.944 77.6081C143.9 77.8801 143.793 78.1201 143.619 78.3308C143.445 78.5414 143.18 78.6961 142.819 78.7961L135.956 81.0988C135.607 81.2014 135.248 81.2854 134.881 81.3521C134.513 81.4188 134.121 81.4628 133.707 81.4894C134.092 81.6441 134.449 81.8121 134.779 81.9894C135.105 82.1694 135.419 82.3614 135.717 82.5681L141.505 86.9014C141.816 87.1108 142.02 87.3414 142.117 87.5961C142.216 87.8508 142.241 88.1188 142.195 88.4028L141.587 92.1561L127.405 81.5401L127.747 79.4321L144.552 73.8561Z" stroke="#00046A" stroke-width="0.666667" stroke-miterlimit="10" stroke-linecap="round" stroke-linejoin="round"/>
<path d="M63.9199 191.059L74.6639 193.086L80.0945 164.275L69.3505 162.251L63.9199 191.059Z" fill="#E1F3FA"/>
<path d="M25.8352 183.88L36.5792 185.906L45.6192 137.95L34.8752 135.925L25.8352 183.88Z" fill="#E1F3FA"/>
<path d="M44.8768 187.469L55.6208 189.496L62.8435 151.188L52.0995 149.163L44.8768 187.469Z" fill="#E1F3FA"/>
<path d="M59.5814 190.242L70.3254 192.268L76.3014 160.56L65.5574 158.535L59.5814 190.242Z" stroke="#000C68" stroke-width="0.666667" stroke-miterlimit="10" stroke-linecap="round" stroke-linejoin="round"/>
<path d="M21.4967 183.062L32.2407 185.089L42.6153 130.051L31.8713 128.026L21.4967 183.062Z" stroke="#000C68" stroke-width="0.666667" stroke-miterlimit="10" stroke-linecap="round" stroke-linejoin="round"/>
<path d="M40.5383 186.652L51.2823 188.678L59.4983 145.096L48.7543 143.07L40.5383 186.652Z" stroke="#000C68" stroke-width="0.666667" stroke-miterlimit="10" stroke-linecap="round" stroke-linejoin="round"/>
<path d="M80.4485 194.175L9.78854 180.855" stroke="#000C68" stroke-width="0.666667" stroke-miterlimit="10" stroke-linecap="round" stroke-linejoin="round"/>
<path d="M370.881 79.791V116.144C370.881 117.598 369.702 118.776 368.249 118.776H303.661L293.719 134.815V118.776V115.119V79.791C293.719 78.3377 294.898 77.159 296.351 77.159H368.249C369.702 77.159 370.881 78.3377 370.881 79.791Z" fill="#E1F3FA"/>
<path d="M367.989 76.976V113.329C367.989 114.783 366.81 115.961 365.357 115.961H300.769L290.826 132V115.961V112.304V76.976C290.826 75.5226 292.006 74.344 293.46 74.344H365.357C366.81 74.344 367.989 75.5226 367.989 76.976Z" stroke="#000C68" stroke-width="0.666667" stroke-miterlimit="10" stroke-linecap="round" stroke-linejoin="round"/>
<path d="M301.705 88.3464H355.216C356.436 88.3464 357.434 87.3464 357.434 86.1264C357.434 84.905 356.436 83.9064 355.216 83.9064H301.705C300.485 83.9064 299.486 84.905 299.486 86.1264C299.486 87.3464 300.485 88.3464 301.705 88.3464Z" fill="white"/>
<path d="M301.705 88.3464H355.216C356.436 88.3464 357.434 87.3464 357.434 86.1264C357.434 84.905 356.436 83.9064 355.216 83.9064H301.705C300.485 83.9064 299.486 84.905 299.486 86.1264C299.486 87.3464 300.485 88.3464 301.705 88.3464Z" stroke="#000C68" stroke-width="0.666667" stroke-miterlimit="10" stroke-linecap="round" stroke-linejoin="round"/>
<path d="M309.148 96.0494H355.453C356.602 96.0494 357.542 95.1094 357.542 93.9601C357.542 92.8108 356.602 91.8708 355.453 91.8708H309.148C308 91.8708 307.06 92.8108 307.06 93.9601C307.06 95.1094 308 96.0494 309.148 96.0494Z" fill="white"/>
<path d="M309.148 96.0494H355.453C356.602 96.0494 357.542 95.1094 357.542 93.9601C357.542 92.8108 356.602 91.8708 355.453 91.8708H309.148C308 91.8708 307.06 92.8108 307.06 93.9601C307.06 95.1094 308 96.0494 309.148 96.0494Z" stroke="#000C68" stroke-width="0.666667" stroke-miterlimit="10" stroke-linecap="round" stroke-linejoin="round"/>
<path d="M324.637 103.753H355.452C356.603 103.753 357.543 102.813 357.543 101.663C357.543 100.514 356.603 99.574 355.452 99.574H324.637C323.488 99.574 322.548 100.514 322.548 101.663C322.548 102.813 323.488 103.753 324.637 103.753Z" fill="white"/>
<path d="M324.637 103.753H355.452C356.603 103.753 357.543 102.813 357.543 101.663C357.543 100.514 356.603 99.574 355.452 99.574H324.637C323.488 99.574 322.548 100.514 322.548 101.663C322.548 102.813 323.488 103.753 324.637 103.753Z" stroke="#000C68" stroke-width="0.666667" stroke-miterlimit="10" stroke-linecap="round" stroke-linejoin="round"/>
<path d="M56.4849 86.0052L23.4849 97.9145L19.2676 101.389L1.15561 61.9385L5.87028 58.4638L38.6209 47.2985L56.4849 86.0052Z" fill="white"/>
<path d="M56.4849 86.0052L23.4849 97.9145L19.2676 101.389L1.15561 61.9385L5.87028 58.4638L38.6209 47.2985L56.4849 86.0052Z" stroke="black" stroke-width="0.666667" stroke-miterlimit="10" stroke-linecap="round" stroke-linejoin="round"/>
<path d="M52.2688 87.5268L54.5008 92.2081L21.5995 99.4695L23.4861 97.9148L52.2688 87.5268Z" fill="white"/>
<path d="M52.2688 87.5268L54.5008 92.2081L21.5995 99.4695L23.4861 97.9148L52.2688 87.5268Z" stroke="black" stroke-width="0.666667" stroke-miterlimit="10" stroke-linecap="round" stroke-linejoin="round"/>
<path d="M51.4264 92.8868L52.8464 96.3428L19.2678 101.388L21.5984 99.4695L51.4264 92.8868Z" fill="white"/>
<path d="M51.4264 92.8868L52.8464 96.3428L19.2678 101.388L21.5984 99.4695L51.4264 92.8868Z" stroke="black" stroke-width="0.666667" stroke-miterlimit="10" stroke-linecap="round" stroke-linejoin="round"/>
<path d="M5.86975 58.4643L21.5991 95.3509L5.86975 58.4643Z" fill="white"/>
<path d="M5.86975 58.4643L21.5991 95.3509" stroke="black" stroke-width="0.666667" stroke-miterlimit="10" stroke-linecap="round" stroke-linejoin="round"/>
<path d="M37.2564 49.78L52.8471 84.516L25.7191 94.6893L9.71509 59.0853L37.2564 49.78Z" fill="#E1F3FA"/>
<path d="M236.721 20.972C236.721 26.908 241.533 31.72 247.47 31.72C253.406 31.72 258.217 26.908 258.217 20.972C258.217 15.036 253.406 10.224 247.47 10.224C241.533 10.224 236.721 15.036 236.721 20.972Z" fill="#E1F3FA"/>
<path d="M241.779 20.972C241.779 26.908 244.326 31.72 247.47 31.72C250.611 31.72 253.159 26.908 253.159 20.972C253.159 15.036 250.611 10.224 247.47 10.224C244.326 10.224 241.779 15.036 241.779 20.972Z" fill="#E1F3FA"/>
<path d="M239.902 13.3477C241.096 15.2464 244.263 16.5464 247.47 16.5464C250.674 16.5464 253.842 15.2464 255.038 13.3477" fill="#E1F3FA"/>
<path d="M255.037 28.597C253.842 26.6983 250.674 25.3983 247.469 25.3983C244.264 25.3983 241.096 26.6983 239.901 28.597" fill="#E1F3FA"/>
<path d="M235.601 20.1986C235.601 26.1346 240.413 30.9466 246.35 30.9466C252.286 30.9466 257.097 26.1346 257.097 20.1986C257.097 14.2626 252.286 9.45063 246.35 9.45063C240.413 9.45063 235.601 14.2626 235.601 20.1986Z" stroke="#000C68" stroke-width="0.666667" stroke-miterlimit="10" stroke-linecap="round" stroke-linejoin="round"/>
<path d="M240.659 20.1986C240.659 26.1346 243.206 30.9466 246.35 30.9466C249.491 30.9466 252.039 26.1346 252.039 20.1986C252.039 14.2626 249.491 9.45063 246.35 9.45063C243.206 9.45063 240.659 14.2626 240.659 20.1986Z" stroke="#000C68" stroke-width="0.666667" stroke-miterlimit="10" stroke-linecap="round" stroke-linejoin="round"/>
<path d="M238.782 12.5736C239.977 14.4722 243.143 15.7722 246.35 15.7722C249.555 15.7722 252.723 14.4722 253.918 12.5736" stroke="#000C68" stroke-width="0.666667" stroke-miterlimit="10" stroke-linecap="round" stroke-linejoin="round"/>
<path d="M253.917 27.8236C252.723 25.9249 249.556 24.6249 246.349 24.6249C243.144 24.6249 239.976 25.9249 238.781 27.8236" stroke="#000C68" stroke-width="0.666667" stroke-miterlimit="10" stroke-linecap="round" stroke-linejoin="round"/>
<path d="M257.097 20.1986H235.601" stroke="#000C68" stroke-width="0.666667" stroke-miterlimit="10" stroke-linecap="round" stroke-linejoin="round"/>
<path d="M246.349 9.4505V30.9465" stroke="#000C68" stroke-width="0.666667" stroke-miterlimit="10" stroke-linecap="round" stroke-linejoin="round"/>
<path d="M317.889 84.9718C318.126 85.1425 318.384 85.3035 318.664 85.4548C318.931 85.6039 319.227 85.7378 319.552 85.8567C319.204 85.8797 318.88 85.9198 318.58 85.977C318.268 86.0193 317.972 86.0904 317.691 86.1905L308.294 89.1745C308.016 89.2617 307.811 89.3807 307.681 89.5317C307.55 89.6826 307.469 89.8613 307.435 90.0676L307.034 92.5436L323.247 87.1898L323.479 85.7583L309.782 75.5788L309.384 78.0355C309.349 78.2547 309.369 78.4565 309.445 78.6409C309.523 78.8124 309.681 78.9835 309.918 79.1542L317.889 84.9718ZM297.256 96.0218C297.351 96.5003 297.561 96.8785 297.886 97.1562C298.199 97.4318 298.542 97.6 298.916 97.6606L300.367 97.8956L293.433 67.0539C293.345 66.6161 293.164 66.2626 292.89 65.9932C292.603 65.7217 292.253 65.5526 291.84 65.4857L290.37 65.2475L297.256 96.0218ZM267.372 76.6687L267.14 78.1001L280.833 88.299L281.234 85.8229C281.268 85.6166 281.246 85.4212 281.17 85.2369C281.094 85.0525 280.938 84.8749 280.701 84.7042L272.727 78.906C272.492 78.7223 272.24 78.5624 271.971 78.4261C271.691 78.2749 271.396 78.1345 271.086 78.0049C271.767 77.9696 272.379 77.8637 272.924 77.6873L282.324 74.6839C282.603 74.5967 282.807 74.4841 282.935 74.3461C283.065 74.1951 283.148 74.0101 283.184 73.7908L283.582 71.3341L267.372 76.6687Z" fill="white"/>
</svg>
